# xmcd
#
# Track frame offsets:
#	150
#	20630
#	36858
#	52635
#	65558
#	81688
#	97888
#	112833
#	128990
#	144580
#	157605
#	174988
#
# Disc length: 2559 seconds
#
# Revision: 0
# Processed by: cddbd v1.5.1PL2 Copyright (c) Steve Scherf et al.
# Submitted via: SynApp - FreeCDDB Version: 2.1
#
DISCID=9209fd0c
DTITLE=Patti LaBelle - Be Yourself
DYEAR=1989
DGENRE=Soul
TTITLE0=Patti LaBelle - If You Asked Me To
TTITLE1=Patti LaBelle - I Can't Complain
TTITLE2=Patti LaBelle - Be Yourself
TTITLE3=Patti LaBelle - Yo Mister
TTITLE4=Patti LaBelle - I Got It Like That
TTITLE5=Patti LaBelle - Love 69
TTITLE6=Patti LaBelle - Still In Love
TTITLE7=Patti LaBelle - I'm Scared Of You
TTITLE8=Patti LaBelle - Can't Bring Me Down
TTITLE9=Patti LaBelle - Need A Little Faith
TTITLE10=Patti LaBelle - I Can Fly
TTITLE11=Patti LaBelle - Goodbye My Friend
EXTD=
EXTT0=
EXTT1=
EXTT2=
EXTT3=
EXTT4=
EXTT5=
EXTT6=
EXTT7=
EXTT8=
EXTT9=
EXTT10=
EXTT11=
PLAYORDER=
